<svg width="34" height="30" viewBox="0 0 34 30" fill="none" xmlns="http://www.w3.org/2000/svg">
<mask id="path-1-inside-1_16_1456" fill="white">
<path d="M21.3117 14.6447C21.0709 14.6447 20.8473 14.5785 20.6487 14.472V14.4748C20.6487 14.8537 20.5014 15.2094 20.2343 15.4759C19.9671 15.7431 19.6116 15.8903 19.2332 15.8903C18.9889 15.8903 18.7625 15.8225 18.5617 15.7131C18.5415 16.0597 18.4029 16.3837 18.1558 16.6311C17.8886 16.8982 17.5331 17.0455 17.1545 17.0455C16.4022 17.0455 15.7913 16.4541 15.7473 15.7129C15.5145 15.8387 15.2513 15.9047 14.9799 15.8873C14.2398 15.8387 13.6603 15.1993 13.6603 14.4312V8.06459L12.9353 9.32055C12.6592 9.80093 12.1423 10.0992 11.5858 10.0992C11.3147 10.0992 11.0468 10.028 10.8095 9.8921C10.5141 9.72083 10.3028 9.44588 10.2149 9.11696C10.1265 8.78783 10.1722 8.44362 10.3431 8.14863C10.3433 8.14863 12.715 4.04143 12.8597 3.78914C12.8769 3.75121 12.9259 3.64119 12.9676 3.54742C13.0075 3.45789 13.0416 3.36601 13.0744 3.27365C13.7896 1.25437 15.5607 4.19617e-05 17.6966 4.19617e-05C20.4703 4.19617e-05 22.7268 2.44694 22.7268 5.45463L22.727 13.229C22.727 13.6074 22.58 13.9629 22.3131 14.2303C22.0459 14.4975 21.6904 14.6447 21.3116 14.6447L21.3117 14.6447ZM17.6966 0.752184C15.8613 0.752184 14.3984 1.78885 13.7833 3.5252C13.744 3.63546 13.703 3.74572 13.6552 3.85315C13.5164 4.16438 13.5164 4.16438 13.4773 4.20914L13.4721 4.20466C13.2784 4.57007 12.7031 5.56641 10.9943 8.52506C10.9241 8.6464 10.9055 8.78729 10.9413 8.92204C10.9776 9.05681 11.0645 9.17037 11.1849 9.23986C11.5586 9.45449 12.0703 9.31596 12.2833 8.9449L13.7108 6.47345C13.7961 6.3262 13.9685 6.25387 14.1339 6.29864C14.2983 6.3427 14.4126 6.49183 14.4126 6.66193V14.4315C14.4126 14.798 14.6892 15.1144 15.0292 15.1368C15.2252 15.1472 15.408 15.0815 15.5454 14.9443C15.6702 14.8195 15.739 14.6531 15.739 14.4753V9.39389C15.739 9.18609 15.9075 9.01763 16.1153 9.01763C16.3231 9.01763 16.4915 9.18585 16.4915 9.39389L16.4913 15.6303C16.4913 15.9959 16.7889 16.2935 17.1545 16.2935C17.3321 16.2935 17.499 16.2247 17.6241 16.0998C17.7489 15.9747 17.8177 15.8079 17.8177 15.6303V9.39388C17.8177 9.18608 17.9859 9.01763 18.194 9.01763C18.4018 9.01763 18.5702 9.18585 18.5702 9.39388L18.57 14.4168V14.4752C18.57 14.8407 18.8675 15.1382 19.2334 15.1382C19.4108 15.1382 19.5772 15.0692 19.703 14.9438C19.8278 14.8192 19.8966 14.6529 19.8966 14.475V9.39362C19.8966 9.18582 20.0649 9.01737 20.2729 9.01737C20.4807 9.01737 20.6491 9.18559 20.6491 9.39362L20.6487 13.2292C20.6487 13.595 20.9462 13.8926 21.3116 13.8926C21.4895 13.8926 21.6558 13.8236 21.7807 13.699C21.906 13.5736 21.9746 13.4068 21.9746 13.2292L21.9748 5.45481C21.9748 2.86207 20.0557 0.752262 17.6966 0.752262L17.6966 0.752184Z"/>
</mask>
<path d="M21.3117 14.6447C21.0709 14.6447 20.8473 14.5785 20.6487 14.472V14.4748C20.6487 14.8537 20.5014 15.2094 20.2343 15.4759C19.9671 15.7431 19.6116 15.8903 19.2332 15.8903C18.9889 15.8903 18.7625 15.8225 18.5617 15.7131C18.5415 16.0597 18.4029 16.3837 18.1558 16.6311C17.8886 16.8982 17.5331 17.0455 17.1545 17.0455C16.4022 17.0455 15.7913 16.4541 15.7473 15.7129C15.5145 15.8387 15.2513 15.9047 14.9799 15.8873C14.2398 15.8387 13.6603 15.1993 13.6603 14.4312V8.06459L12.9353 9.32055C12.6592 9.80093 12.1423 10.0992 11.5858 10.0992C11.3147 10.0992 11.0468 10.028 10.8095 9.8921C10.5141 9.72083 10.3028 9.44588 10.2149 9.11696C10.1265 8.78783 10.1722 8.44362 10.3431 8.14863C10.3433 8.14863 12.715 4.04143 12.8597 3.78914C12.8769 3.75121 12.9259 3.64119 12.9676 3.54742C13.0075 3.45789 13.0416 3.36601 13.0744 3.27365C13.7896 1.25437 15.5607 4.19617e-05 17.6966 4.19617e-05C20.4703 4.19617e-05 22.7268 2.44694 22.7268 5.45463L22.727 13.229C22.727 13.6074 22.58 13.9629 22.3131 14.2303C22.0459 14.4975 21.6904 14.6447 21.3116 14.6447L21.3117 14.6447ZM17.6966 0.752184C15.8613 0.752184 14.3984 1.78885 13.7833 3.5252C13.744 3.63546 13.703 3.74572 13.6552 3.85315C13.5164 4.16438 13.5164 4.16438 13.4773 4.20914L13.4721 4.20466C13.2784 4.57007 12.7031 5.56641 10.9943 8.52506C10.9241 8.6464 10.9055 8.78729 10.9413 8.92204C10.9776 9.05681 11.0645 9.17037 11.1849 9.23986C11.5586 9.45449 12.0703 9.31596 12.2833 8.9449L13.7108 6.47345C13.7961 6.3262 13.9685 6.25387 14.1339 6.29864C14.2983 6.3427 14.4126 6.49183 14.4126 6.66193V14.4315C14.4126 14.798 14.6892 15.1144 15.0292 15.1368C15.2252 15.1472 15.408 15.0815 15.5454 14.9443C15.6702 14.8195 15.739 14.6531 15.739 14.4753V9.39389C15.739 9.18609 15.9075 9.01763 16.1153 9.01763C16.3231 9.01763 16.4915 9.18585 16.4915 9.39389L16.4913 15.6303C16.4913 15.9959 16.7889 16.2935 17.1545 16.2935C17.3321 16.2935 17.499 16.2247 17.6241 16.0998C17.7489 15.9747 17.8177 15.8079 17.8177 15.6303V9.39388C17.8177 9.18608 17.9859 9.01763 18.194 9.01763C18.4018 9.01763 18.5702 9.18585 18.5702 9.39388L18.57 14.4168V14.4752C18.57 14.8407 18.8675 15.1382 19.2334 15.1382C19.4108 15.1382 19.5772 15.0692 19.703 14.9438C19.8278 14.8192 19.8966 14.6529 19.8966 14.475V9.39362C19.8966 9.18582 20.0649 9.01737 20.2729 9.01737C20.4807 9.01737 20.6491 9.18559 20.6491 9.39362L20.6487 13.2292C20.6487 13.595 20.9462 13.8926 21.3116 13.8926C21.4895 13.8926 21.6558 13.8236 21.7807 13.699C21.906 13.5736 21.9746 13.4068 21.9746 13.2292L21.9748 5.45481C21.9748 2.86207 20.0557 0.752262 17.6966 0.752262L17.6966 0.752184Z" fill="#4CAF4F"/>
<path d="M21.3117 14.6447V13.3114H26.0224L22.0104 15.7802L21.3117 14.6447ZM20.6487 14.472H19.3154V12.2442L21.2788 13.2969L20.6487 14.472ZM20.2343 15.4759L19.2915 14.5331L19.2927 14.5318L20.2343 15.4759ZM18.5617 15.7131L17.2307 15.6353L17.3534 13.5369L19.1994 14.5422L18.5617 15.7131ZM18.1558 16.6311L19.0991 17.5734L19.0986 17.5739L18.1558 16.6311ZM15.7473 15.7129L15.1133 14.5399L16.9542 13.545L17.0782 15.6339L15.7473 15.7129ZM14.9799 15.8873L14.8944 17.2178L14.8926 17.2177L14.9799 15.8873ZM13.6603 8.06459L12.5055 7.39804L14.9936 3.08754V8.06459H13.6603ZM12.9353 9.32055L11.7794 8.6561L11.7806 8.654L12.9353 9.32055ZM10.8095 9.8921L10.1466 11.049L10.1408 11.0456L10.8095 9.8921ZM10.2149 9.11696L11.5026 8.77129L11.503 8.77279L10.2149 9.11696ZM10.3431 8.14863L9.1892 7.48051L9.57438 6.8153H10.3431V8.14863ZM12.8597 3.78914L14.0741 4.33975L14.0479 4.39748L14.0164 4.45248L12.8597 3.78914ZM12.9676 3.54742L11.7494 3.00563L11.7494 3.00561L12.9676 3.54742ZM13.0744 3.27365L14.3312 3.71883L14.3311 3.7192L13.0744 3.27365ZM22.7268 5.45463L21.3935 5.45467V5.45463H22.7268ZM22.727 13.229L24.0604 13.2289V13.229H22.727ZM22.3131 14.2303L23.2568 15.1722L23.2559 15.1731L22.3131 14.2303ZM21.3116 14.6447V15.9781H16.6009L20.6128 13.5092L21.3116 14.6447ZM17.6966 0.752184V-0.581148H19.4642L18.9786 1.11848L17.6966 0.752184ZM13.7833 3.5252L15.0401 3.97044L15.0391 3.97331L13.7833 3.5252ZM13.6552 3.85315L14.8732 4.39542L14.8729 4.39612L13.6552 3.85315ZM13.4773 4.20914L14.4813 5.08642L13.6091 6.08472L12.6058 5.21823L13.4773 4.20914ZM13.4721 4.20466L12.294 3.58029L13.0774 2.10205L14.3436 3.19556L13.4721 4.20466ZM10.9943 8.52506L12.1489 9.19191L12.1484 9.19287L10.9943 8.52506ZM10.9413 8.92204L9.6538 9.26867L9.6527 9.2645L10.9413 8.92204ZM11.1849 9.23986L10.5208 10.396L10.5183 10.3946L11.1849 9.23986ZM12.2833 8.9449L11.1269 8.2812L11.1287 8.27802L12.2833 8.9449ZM13.7108 6.47345L12.5562 5.80657L12.557 5.80517L13.7108 6.47345ZM14.1339 6.29864L13.7889 7.58656L13.7856 7.58566L14.1339 6.29864ZM15.0292 15.1368L14.9588 16.4683L14.9502 16.4678L14.9416 16.4673L15.0292 15.1368ZM15.5454 14.9443L16.4882 15.8871L16.4874 15.888L15.5454 14.9443ZM16.4915 9.39389H17.8249V9.39394L16.4915 9.39389ZM16.4913 15.6303H15.158V15.6302L16.4913 15.6303ZM17.6241 16.0998L18.5678 17.0417L18.566 17.0435L17.6241 16.0998ZM18.5702 9.39388H19.9036V9.39394L18.5702 9.39388ZM18.57 14.4168H17.2367V14.4168L18.57 14.4168ZM19.703 14.9438L20.6449 15.8875L20.644 15.8884L19.703 14.9438ZM20.6491 9.39362H21.9825V9.39378L20.6491 9.39362ZM20.6487 13.2292H19.3153V13.229L20.6487 13.2292ZM21.7807 13.699L22.7235 14.6418L22.7226 14.6426L21.7807 13.699ZM21.9746 13.2292H20.6413V13.2291L21.9746 13.2292ZM21.9748 5.45481H23.3082V5.45485L21.9748 5.45481ZM17.6966 0.752262V2.0856H15.9289L16.4146 0.385967L17.6966 0.752262ZM21.3117 15.978C20.8207 15.978 20.3824 15.8421 20.0186 15.6471L21.2788 13.2969C21.296 13.3062 21.3069 13.3097 21.3113 13.3109C21.315 13.3119 21.3145 13.3114 21.3117 13.3114V15.978ZM21.982 14.472V14.4748H19.3154V14.472H21.982ZM21.982 14.4748C21.982 15.2062 21.695 15.9021 21.1758 16.42L19.2927 14.5318C19.3022 14.5223 19.307 14.5142 19.3097 14.5075C19.3125 14.5009 19.3154 14.4906 19.3154 14.4748H21.982ZM21.1771 16.4187C20.6597 16.9361 19.9649 17.2237 19.2332 17.2237V14.557C19.2485 14.557 19.2586 14.5542 19.2654 14.5514C19.2722 14.5486 19.281 14.5435 19.2915 14.5331L21.1771 16.4187ZM19.2332 17.2237C18.7358 17.2237 18.292 17.0845 17.9241 16.8841L19.1994 14.5422C19.2168 14.5516 19.2278 14.5552 19.2321 14.5564C19.2359 14.5574 19.2356 14.557 19.2332 14.557V17.2237ZM19.8928 15.791C19.8544 16.4473 19.5882 17.0838 19.0991 17.5734L17.2125 15.6887C17.2174 15.6838 17.2203 15.6794 17.2227 15.6739C17.2254 15.6679 17.2295 15.6557 17.2307 15.6353L19.8928 15.791ZM19.0986 17.5739C18.5811 18.0914 17.8863 18.3788 17.1545 18.3788V15.7121C17.17 15.7121 17.1802 15.7093 17.187 15.7065C17.1938 15.7037 17.2026 15.6987 17.213 15.6882L19.0986 17.5739ZM17.1545 18.3788C15.6825 18.3788 14.5013 17.2235 14.4163 15.792L17.0782 15.6339C17.0796 15.6565 17.0889 15.6764 17.1053 15.6921C17.1133 15.6997 17.1214 15.7046 17.1285 15.7075C17.1347 15.7101 17.1426 15.7121 17.1545 15.7121V18.3788ZM16.3812 16.8859C15.9505 17.1187 15.4399 17.2529 14.8944 17.2178L15.0654 14.5567C15.0654 14.5567 15.0682 14.5569 15.0753 14.5553C15.0828 14.5536 15.0958 14.5494 15.1133 14.5399L16.3812 16.8859ZM14.8926 17.2177C13.4122 17.1206 12.327 15.8617 12.327 14.4312H14.9936C14.9936 14.4763 15.01 14.511 15.0305 14.5337C15.0505 14.5557 15.0641 14.5566 15.0671 14.5568L14.8926 17.2177ZM12.327 14.4312V8.06459H14.9936V14.4312H12.327ZM14.8151 8.73114L14.0901 9.9871L11.7806 8.654L12.5055 7.39804L14.8151 8.73114ZM14.0913 9.985C13.5761 10.8813 12.6171 11.4325 11.5858 11.4325V8.76586C11.6676 8.76586 11.7423 8.72052 11.7794 8.6561L14.0913 9.985ZM11.5858 11.4325C11.0816 11.4325 10.5853 11.3003 10.1467 11.049L11.4724 8.73523C11.5083 8.75578 11.5477 8.76586 11.5858 8.76586V11.4325ZM10.1408 11.0456C9.54219 10.6986 9.10647 10.1338 8.92674 9.46113L11.503 8.77279C11.5018 8.76824 11.4985 8.76019 11.4921 8.75182C11.4857 8.74352 11.4798 8.73948 11.4783 8.7386L10.1408 11.0456ZM8.92715 9.46262C8.74672 8.79047 8.84118 8.08155 9.1892 7.48051L11.4969 8.81675C11.4988 8.81347 11.5022 8.80587 11.5036 8.79509C11.505 8.78428 11.5038 8.77566 11.5026 8.77129L8.92715 9.46262ZM10.3431 6.8153C9.68901 6.98674 9.19945 7.46311 9.19579 7.46925C9.19458 7.47131 9.19276 7.47439 9.19219 7.47538C9.19185 7.47595 9.19129 7.47692 9.1911 7.47725C9.19098 7.47746 9.19073 7.47787 9.19067 7.47797C9.19049 7.4783 9.19054 7.4782 9.19105 7.47733C9.19195 7.47577 9.19347 7.47314 9.19569 7.46931C9.20006 7.46174 9.20665 7.45036 9.21534 7.43532C9.2327 7.40528 9.25821 7.36112 9.29078 7.30474C9.3559 7.19199 9.44911 7.03062 9.56142 6.83614C9.78604 6.44719 10.087 5.92594 10.3925 5.39681C11.0046 4.33677 11.6321 3.24973 11.7031 3.12581L14.0164 4.45248C13.9427 4.58084 13.312 5.67355 12.7019 6.73018C12.3964 7.25939 12.0953 7.78071 11.8707 8.16974C11.7583 8.36425 11.6651 8.52572 11.5999 8.63858C11.5673 8.695 11.5417 8.73932 11.5242 8.76957C11.5155 8.78468 11.5087 8.79639 11.5041 8.80437C11.5018 8.80832 11.4999 8.81159 11.4985 8.81398C11.4979 8.81508 11.4971 8.81647 11.4963 8.81779C11.496 8.81828 11.4952 8.81975 11.4942 8.82151C11.4935 8.82262 11.4916 8.8258 11.4904 8.82792C11.4867 8.83412 10.9971 9.31053 10.3431 9.48197V6.8153ZM11.6454 3.23854C11.6601 3.20617 11.7066 3.10181 11.7494 3.00563L14.1859 4.08922C14.1453 4.18058 14.0938 4.29625 14.0741 4.33975L11.6454 3.23854ZM11.7494 3.00561C11.7679 2.96394 11.7884 2.9107 11.8177 2.82811L14.3311 3.7192C14.2949 3.82133 14.247 3.95184 14.1859 4.08923L11.7494 3.00561ZM11.8176 2.82848C12.7206 0.278996 14.9936 -1.33329 17.6966 -1.33329V1.33337C16.1277 1.33337 14.8586 2.22975 14.3312 3.71883L11.8176 2.82848ZM17.6966 -1.33329C21.3063 -1.33329 24.0601 1.81429 24.0601 5.45463H21.3935C21.3935 3.07959 19.6343 1.33337 17.6966 1.33337V-1.33329ZM24.0601 5.45459L24.0604 13.2289L21.3937 13.229L21.3935 5.45467L24.0601 5.45459ZM24.0604 13.229C24.0604 13.9602 23.7735 14.6546 23.2568 15.1722L21.3694 13.2884C21.38 13.2778 21.3851 13.2688 21.388 13.2618C21.3909 13.2548 21.3937 13.2445 21.3937 13.229H24.0604ZM23.2559 15.1731C22.7383 15.6907 22.0435 15.9781 21.3116 15.9781V13.3114C21.3273 13.3114 21.3375 13.3085 21.3443 13.3057C21.3511 13.3029 21.3599 13.2979 21.3703 13.2875L23.2559 15.1731ZM20.6128 13.5092L20.6129 13.5091L22.0104 15.7802L22.0104 15.7803L20.6128 13.5092ZM17.6966 2.08552C16.4289 2.08552 15.4676 2.76367 15.0401 3.97044L12.5265 3.07996C13.3293 0.81402 15.2937 -0.581148 17.6966 -0.581148V2.08552ZM15.0391 3.97331C14.997 4.09126 14.9423 4.24021 14.8732 4.39542L12.4371 3.31088C12.4636 3.25121 12.4909 3.17966 12.5275 3.07709L15.0391 3.97331ZM14.8729 4.39612C14.8119 4.53306 14.7607 4.64871 14.7216 4.72705C14.6973 4.77567 14.6579 4.8506 14.6009 4.93359C14.5431 5.01768 14.486 5.08111 14.4813 5.08642L12.4732 3.33185C12.4763 3.32827 12.4753 3.32943 12.4737 3.33126C12.4717 3.33363 12.4665 3.33967 12.4597 3.34796C12.4527 3.35654 12.4438 3.36763 12.4338 3.38082C12.4237 3.39412 12.4135 3.40827 12.4032 3.4232C12.3823 3.4536 12.3662 3.48022 12.3548 3.50035C12.3441 3.51915 12.3376 3.53216 12.3361 3.53509C12.3346 3.53812 12.3356 3.53634 12.3401 3.52664C12.3445 3.51723 12.3507 3.5037 12.3596 3.48399C12.3684 3.46446 12.379 3.44087 12.3921 3.41172C12.4051 3.38262 12.42 3.34927 12.4374 3.31018L14.8729 4.39612ZM12.6058 5.21823L12.6006 5.21376L14.3436 3.19556L14.3488 3.20004L12.6058 5.21823ZM14.6502 4.82903C14.4415 5.22278 13.8458 6.25389 12.1489 9.19191L9.83971 7.85822C11.5604 4.87892 12.1153 3.91737 12.294 3.58029L14.6502 4.82903ZM12.1484 9.19287C12.255 9.0085 12.2848 8.78605 12.2299 8.57958L9.6527 9.2645C9.5262 8.78852 9.59316 8.28429 9.84027 7.85726L12.1484 9.19287ZM12.2288 8.57542C12.1739 8.37163 12.0391 8.1934 11.8515 8.08513L10.5183 10.3946C10.09 10.1473 9.78124 9.74199 9.65381 9.26867L12.2288 8.57542ZM11.849 8.08369C11.6972 7.99651 11.5496 7.99709 11.4477 8.02453C11.3462 8.05187 11.216 8.12592 11.1269 8.2812L13.4397 9.6086C12.8586 10.6211 11.5306 10.976 10.5208 10.396L11.849 8.08369ZM11.1287 8.27802L12.5562 5.80657L14.8653 7.14033L13.4379 9.61177L11.1287 8.27802ZM12.557 5.80517C12.9421 5.14027 13.7282 4.80752 14.4822 5.01161L13.7856 7.58566C14.2088 7.70022 14.65 7.51213 14.8645 7.14173L12.557 5.80517ZM14.4789 5.01072C15.227 5.21112 15.7459 5.88899 15.7459 6.66193H13.0793C13.0793 7.09467 13.3697 7.47427 13.7889 7.58655L14.4789 5.01072ZM15.7459 6.66193V14.4315H13.0793V6.66193H15.7459ZM15.7459 14.4315C15.7459 14.2795 15.6897 14.1414 15.5973 14.0357C15.505 13.9302 15.3422 13.8212 15.1167 13.8064L14.9416 16.4673C13.8192 16.3934 13.0793 15.4157 13.0793 14.4315H15.7459ZM15.0996 13.8053C14.9421 13.797 14.7496 13.8547 14.6034 14.0007L16.4874 15.888C16.0664 16.3082 15.5083 16.4974 14.9588 16.4683L15.0996 13.8053ZM14.6026 14.0015C14.476 14.1281 14.4057 14.3014 14.4057 14.4753H17.0724C17.0724 15.0048 16.8645 15.5109 16.4882 15.8871L14.6026 14.0015ZM14.4057 14.4753V9.39389H17.0724V14.4753H14.4057ZM14.4057 9.39389C14.4057 8.44971 15.1711 7.6843 16.1153 7.6843V10.351C16.6439 10.351 17.0724 9.92247 17.0724 9.39389H14.4057ZM16.1153 7.6843C17.0589 7.6843 17.8249 8.44894 17.8249 9.39389H15.1582C15.1582 9.92277 15.5872 10.351 16.1153 10.351V7.6843ZM17.8249 9.39394L17.8246 15.6303L15.158 15.6302L15.1582 9.39384L17.8249 9.39394ZM17.8246 15.6303C17.8246 15.2595 17.5252 14.9601 17.1545 14.9601V17.6268C16.0525 17.6268 15.158 16.7323 15.158 15.6303H17.8246ZM17.1545 14.9601C16.981 14.9601 16.8084 15.03 16.6822 15.1561L18.566 17.0435C18.1895 17.4193 17.6833 17.6268 17.1545 17.6268V14.9601ZM16.6804 15.1579C16.5543 15.2842 16.4844 15.4567 16.4844 15.6303H19.1511C19.1511 16.1591 18.9436 16.6652 18.5678 17.0417L16.6804 15.1579ZM16.4844 15.6303V9.39388H19.1511V15.6303H16.4844ZM16.4844 9.39388C16.4844 8.45026 17.249 7.6843 18.194 7.6843V10.351C18.7229 10.351 19.1511 9.92191 19.1511 9.39388H16.4844ZM18.194 7.6843C19.1376 7.6843 19.9036 8.44893 19.9036 9.39388H17.2369C17.2369 9.92277 17.6659 10.351 18.194 10.351V7.6843ZM19.9036 9.39394L19.9033 14.4169L17.2367 14.4168L17.2369 9.39382L19.9036 9.39394ZM19.9033 14.4168V14.4752H17.2367V14.4168H19.9033ZM19.9033 14.4752C19.9033 14.1036 19.6033 13.8049 19.2334 13.8049V16.4715C18.1318 16.4715 17.2367 15.5777 17.2367 14.4752H19.9033ZM19.2334 13.8049C19.0563 13.8049 18.8847 13.8769 18.7619 13.9993L20.644 15.8884C20.2696 16.2614 19.7654 16.4715 19.2334 16.4715V13.8049ZM18.7611 14.0001C18.6335 14.1274 18.5633 14.3014 18.5633 14.475H21.23C21.23 15.0044 21.0222 15.511 20.6449 15.8875L18.7611 14.0001ZM18.5633 14.475V9.39362H21.23V14.475H18.5633ZM18.5633 9.39362C18.5633 8.44998 19.3279 7.68403 20.2729 7.68403V10.3507C20.8018 10.3507 21.23 9.92167 21.23 9.39362H18.5633ZM20.2729 7.68403C21.2165 7.68403 21.9825 8.44866 21.9825 9.39362H19.3158C19.3158 9.92251 19.7448 10.3507 20.2729 10.3507V7.68403ZM21.9825 9.39378L21.982 13.2293L19.3153 13.229L19.3158 9.39345L21.9825 9.39378ZM21.982 13.2292C21.982 12.8593 21.6832 12.5593 21.3116 12.5593V15.2259C20.2092 15.2259 19.3153 14.3308 19.3153 13.2292H21.982ZM21.3116 12.5593C21.1367 12.5593 20.9642 12.6301 20.8388 12.7553L22.7226 14.6426C22.3475 15.0171 21.8423 15.2259 21.3116 15.2259V12.5593ZM20.8379 12.7561C20.7109 12.8831 20.6413 13.0564 20.6413 13.2292H23.3079C23.3079 13.7572 23.1011 14.2641 22.7235 14.6418L20.8379 12.7561ZM20.6413 13.2291L20.6415 5.45477L23.3082 5.45485L23.3079 13.2292L20.6413 13.2291ZM20.6415 5.45481C20.6415 3.47694 19.2034 2.0856 17.6966 2.0856V-0.581072C20.908 -0.581072 23.3082 2.24721 23.3082 5.45481H20.6415ZM16.4146 0.385967L16.4146 0.385889L18.9786 1.11848L18.9786 1.11856L16.4146 0.385967Z" fill="#4CAF4F" mask="url(#path-1-inside-1_16_1456)"/>
<path d="M4.96326 17.214L4.88806 17.1739C4.87055 17.2055 4.82062 17.294 4.74744 17.4259C4.77347 17.4389 4.79926 17.4511 4.82556 17.461C4.87045 17.3802 4.91663 17.298 4.96326 17.214Z" fill="#4CAF4F" stroke="#4CAF4F" stroke-width="1.33333"/>
<path d="M20.8259 19.0758L20.8279 19.0768C20.8303 19.0785 20.8322 19.0809 20.8347 19.0826C20.8316 19.0805 20.8289 19.0779 20.8259 19.0758Z" fill="#4CAF4F" stroke="#4CAF4F" stroke-width="1.33333"/>
</svg>
