<svg width="48" height="48" viewBox="0 0 48 48" fill="none" xmlns="http://www.w3.org/2000/svg">
<mask id="path-1-inside-1_1302_1432" fill="white">
<path d="M28.3114 23.6447C28.0706 23.6447 27.847 23.5785 27.6484 23.472V23.4748C27.6484 23.8537 27.5012 24.2094 27.234 24.4759C26.9669 24.7431 26.6114 24.8903 26.233 24.8903C25.9886 24.8903 25.7622 24.8225 25.5615 24.7131C25.5412 25.0597 25.4027 25.3837 25.1556 25.6311C24.8884 25.8982 24.5329 26.0455 24.1542 26.0455C23.4019 26.0455 22.791 25.4541 22.747 24.7129C22.5142 24.8387 22.2511 24.9047 21.9796 24.8873C21.2396 24.8387 20.6601 24.1993 20.6601 23.4312V17.0646L19.9351 18.3206C19.659 18.8009 19.1421 19.0992 18.5856 19.0992C18.3144 19.0992 18.0465 19.028 17.8093 18.8921C17.5139 18.7208 17.3025 18.4459 17.2146 18.117C17.1263 17.7878 17.172 17.4436 17.3428 17.1486C17.343 17.1486 19.7148 13.0414 19.8595 12.7891C19.8767 12.7512 19.9257 12.6412 19.9674 12.5474C20.0072 12.4579 20.0414 12.366 20.0741 12.2737C20.7894 10.2544 22.5604 9.00004 24.6963 9.00004C27.47 9.00004 29.7266 11.4469 29.7266 14.4546L29.7268 22.229C29.7268 22.6074 29.5798 22.9629 29.3129 23.2303C29.0457 23.4975 28.6902 23.6447 28.3114 23.6447L28.3114 23.6447ZM24.6964 9.75218C22.861 9.75218 21.3982 10.7888 20.7831 12.5252C20.7437 12.6355 20.7027 12.7457 20.6549 12.8532C20.5161 13.1644 20.5161 13.1644 20.477 13.2091L20.4718 13.2047C20.2782 13.5701 19.7029 14.5664 17.9941 17.5251C17.9239 17.6464 17.9052 17.7873 17.9411 17.922C17.9773 18.0568 18.0643 18.1704 18.1847 18.2399C18.5583 18.4545 19.0701 18.316 19.283 17.9449L20.7105 15.4734C20.7958 15.3262 20.9683 15.2539 21.1337 15.2986C21.2981 15.3427 21.4124 15.4918 21.4124 15.6619V23.4315C21.4124 23.798 21.689 24.1144 22.0289 24.1368C22.225 24.1472 22.4078 24.0815 22.5451 23.9443C22.67 23.8195 22.7388 23.6531 22.7388 23.4753V18.3939C22.7388 18.1861 22.9073 18.0176 23.115 18.0176C23.3228 18.0176 23.4913 18.1859 23.4913 18.3939L23.4911 24.6303C23.4911 24.9959 23.7886 25.2935 24.1543 25.2935C24.3319 25.2935 24.4987 25.2247 24.6238 25.0998C24.7487 24.9747 24.8175 24.8079 24.8175 24.6303V18.3939C24.8175 18.1861 24.9857 18.0176 25.1937 18.0176C25.4015 18.0176 25.57 18.1858 25.57 18.3939L25.5697 23.4168V23.4752C25.5697 23.8407 25.8673 24.1382 26.2332 24.1382C26.4106 24.1382 26.5769 24.0692 26.7027 23.9438C26.8276 23.8192 26.8964 23.6529 26.8964 23.475V18.3936C26.8964 18.1858 27.0646 18.0174 27.2726 18.0174C27.4804 18.0174 27.6489 18.1856 27.6489 18.3936L27.6484 22.2292C27.6484 22.595 27.946 22.8926 28.3114 22.8926C28.4893 22.8926 28.6556 22.8236 28.7805 22.699C28.9058 22.5736 28.9744 22.4068 28.9744 22.2292L28.9746 14.4548C28.9746 11.8621 27.0554 9.75226 24.6963 9.75226L24.6964 9.75218Z"/>
</mask>
<path d="M28.3114 23.6447C28.0706 23.6447 27.847 23.5785 27.6484 23.472V23.4748C27.6484 23.8537 27.5012 24.2094 27.234 24.4759C26.9669 24.7431 26.6114 24.8903 26.233 24.8903C25.9886 24.8903 25.7622 24.8225 25.5615 24.7131C25.5412 25.0597 25.4027 25.3837 25.1556 25.6311C24.8884 25.8982 24.5329 26.0455 24.1542 26.0455C23.4019 26.0455 22.791 25.4541 22.747 24.7129C22.5142 24.8387 22.2511 24.9047 21.9796 24.8873C21.2396 24.8387 20.6601 24.1993 20.6601 23.4312V17.0646L19.9351 18.3206C19.659 18.8009 19.1421 19.0992 18.5856 19.0992C18.3144 19.0992 18.0465 19.028 17.8093 18.8921C17.5139 18.7208 17.3025 18.4459 17.2146 18.117C17.1263 17.7878 17.172 17.4436 17.3428 17.1486C17.343 17.1486 19.7148 13.0414 19.8595 12.7891C19.8767 12.7512 19.9257 12.6412 19.9674 12.5474C20.0072 12.4579 20.0414 12.366 20.0741 12.2737C20.7894 10.2544 22.5604 9.00004 24.6963 9.00004C27.47 9.00004 29.7266 11.4469 29.7266 14.4546L29.7268 22.229C29.7268 22.6074 29.5798 22.9629 29.3129 23.2303C29.0457 23.4975 28.6902 23.6447 28.3114 23.6447L28.3114 23.6447ZM24.6964 9.75218C22.861 9.75218 21.3982 10.7888 20.7831 12.5252C20.7437 12.6355 20.7027 12.7457 20.6549 12.8532C20.5161 13.1644 20.5161 13.1644 20.477 13.2091L20.4718 13.2047C20.2782 13.5701 19.7029 14.5664 17.9941 17.5251C17.9239 17.6464 17.9052 17.7873 17.9411 17.922C17.9773 18.0568 18.0643 18.1704 18.1847 18.2399C18.5583 18.4545 19.0701 18.316 19.283 17.9449L20.7105 15.4734C20.7958 15.3262 20.9683 15.2539 21.1337 15.2986C21.2981 15.3427 21.4124 15.4918 21.4124 15.6619V23.4315C21.4124 23.798 21.689 24.1144 22.0289 24.1368C22.225 24.1472 22.4078 24.0815 22.5451 23.9443C22.67 23.8195 22.7388 23.6531 22.7388 23.4753V18.3939C22.7388 18.1861 22.9073 18.0176 23.115 18.0176C23.3228 18.0176 23.4913 18.1859 23.4913 18.3939L23.4911 24.6303C23.4911 24.9959 23.7886 25.2935 24.1543 25.2935C24.3319 25.2935 24.4987 25.2247 24.6238 25.0998C24.7487 24.9747 24.8175 24.8079 24.8175 24.6303V18.3939C24.8175 18.1861 24.9857 18.0176 25.1937 18.0176C25.4015 18.0176 25.57 18.1858 25.57 18.3939L25.5697 23.4168V23.4752C25.5697 23.8407 25.8673 24.1382 26.2332 24.1382C26.4106 24.1382 26.5769 24.0692 26.7027 23.9438C26.8276 23.8192 26.8964 23.6529 26.8964 23.475V18.3936C26.8964 18.1858 27.0646 18.0174 27.2726 18.0174C27.4804 18.0174 27.6489 18.1856 27.6489 18.3936L27.6484 22.2292C27.6484 22.595 27.946 22.8926 28.3114 22.8926C28.4893 22.8926 28.6556 22.8236 28.7805 22.699C28.9058 22.5736 28.9744 22.4068 28.9744 22.2292L28.9746 14.4548C28.9746 11.8621 27.0554 9.75226 24.6963 9.75226L24.6964 9.75218Z" fill="#4CAF4F"/>
<path d="M28.3114 23.6447V22.3114H33.0221L29.0102 24.7802L28.3114 23.6447ZM27.6484 23.472H26.3151V21.2442L28.2785 22.2969L27.6484 23.472ZM27.234 24.4759L26.2912 23.5331L26.2925 23.5318L27.234 24.4759ZM25.5615 24.7131L24.2304 24.6353L24.3531 22.5369L26.1992 23.5422L25.5615 24.7131ZM25.1556 25.6311L26.0989 26.5734L26.0984 26.5739L25.1556 25.6311ZM22.747 24.7129L22.113 23.5399L23.9539 22.545L24.078 24.6339L22.747 24.7129ZM21.9796 24.8873L21.8942 26.2178L21.8924 26.2177L21.9796 24.8873ZM20.6601 17.0646L19.5053 16.398L21.9934 12.0875V17.0646H20.6601ZM19.9351 18.3206L18.7791 17.6561L18.7803 17.654L19.9351 18.3206ZM17.8093 18.8921L17.1464 20.049L17.1406 20.0456L17.8093 18.8921ZM17.2146 18.117L18.5024 17.7713L18.5028 17.7728L17.2146 18.117ZM17.3428 17.1486L16.189 16.4805L16.5741 15.8153H17.3428V17.1486ZM19.8595 12.7891L21.0738 13.3397L21.0477 13.3975L21.0161 13.4525L19.8595 12.7891ZM19.9674 12.5474L18.7491 12.0056L18.7491 12.0056L19.9674 12.5474ZM20.0741 12.2737L21.3309 12.7188L21.3308 12.7192L20.0741 12.2737ZM29.7266 14.4546L28.3932 14.4547V14.4546H29.7266ZM29.7268 22.229L31.0601 22.2289V22.229H29.7268ZM29.3129 23.2303L30.2565 24.1722L30.2557 24.1731L29.3129 23.2303ZM28.3114 23.6447V24.9781H23.6006L27.6126 22.5092L28.3114 23.6447ZM24.6964 9.75218V8.41885H26.464L25.9784 10.1185L24.6964 9.75218ZM20.7831 12.5252L22.0399 12.9704L22.0388 12.9733L20.7831 12.5252ZM20.6549 12.8532L21.873 13.3954L21.8727 13.3961L20.6549 12.8532ZM20.477 13.2091L21.4811 14.0864L20.6088 15.0847L19.6055 14.2182L20.477 13.2091ZM20.4718 13.2047L19.2937 12.5803L20.0772 11.102L21.3433 12.1956L20.4718 13.2047ZM17.9941 17.5251L19.1487 18.1919L19.1481 18.1929L17.9941 17.5251ZM17.9411 17.922L16.6536 18.2687L16.6525 18.2645L17.9411 17.922ZM18.1847 18.2399L17.5206 19.396L17.5181 19.3946L18.1847 18.2399ZM19.283 17.9449L18.1266 17.2812L18.1284 17.278L19.283 17.9449ZM20.7105 15.4734L19.5559 14.8066L19.5568 14.8052L20.7105 15.4734ZM21.1337 15.2986L20.7886 16.5866L20.7853 16.5857L21.1337 15.2986ZM22.0289 24.1368L21.9585 25.4683L21.9499 25.4678L21.9414 25.4673L22.0289 24.1368ZM22.5451 23.9443L23.4879 24.8871L23.4871 24.888L22.5451 23.9443ZM23.4913 18.3939H24.8246V18.3939L23.4913 18.3939ZM23.4911 24.6303H22.1577V24.6302L23.4911 24.6303ZM24.6238 25.0998L25.5675 26.0417L25.5657 26.0435L24.6238 25.0998ZM25.57 18.3939H26.9033V18.3939L25.57 18.3939ZM25.5697 23.4168H24.2364V23.4168L25.5697 23.4168ZM26.7027 23.9438L27.6447 24.8875L27.6438 24.8884L26.7027 23.9438ZM27.6489 18.3936H28.9822V18.3938L27.6489 18.3936ZM27.6484 22.2292H26.3151V22.229L27.6484 22.2292ZM28.7805 22.699L29.7233 23.6418L29.7224 23.6426L28.7805 22.699ZM28.9744 22.2292H27.641V22.2291L28.9744 22.2292ZM28.9746 14.4548H30.3079V14.4549L28.9746 14.4548ZM24.6963 9.75226V11.0856H22.9287L23.4143 9.38597L24.6963 9.75226ZM28.3114 23.6447V24.978C27.8204 24.978 27.3821 24.8421 27.0184 24.6471L27.6484 23.472L28.2785 22.2969C28.2957 22.3062 28.3067 22.3097 28.311 22.3109C28.3148 22.3119 28.3143 22.3114 28.3114 22.3114V23.6447ZM27.6484 23.472H28.9818V23.4748H27.6484H26.3151V23.472H27.6484ZM27.6484 23.4748H28.9818C28.9818 24.2062 28.6948 24.9021 28.1756 25.42L27.234 24.4759L26.2925 23.5318C26.302 23.5223 26.3067 23.5142 26.3095 23.5075C26.3122 23.5009 26.3151 23.4906 26.3151 23.4748H27.6484ZM27.234 24.4759L28.1768 25.4187C27.6594 25.9361 26.9647 26.2237 26.233 26.2237V24.8903V23.557C26.2482 23.557 26.2583 23.5542 26.2652 23.5514C26.272 23.5486 26.2808 23.5435 26.2912 23.5331L27.234 24.4759ZM26.233 24.8903V26.2237C25.7356 26.2237 25.2918 26.0845 24.9238 25.8841L25.5615 24.7131L26.1992 23.5422C26.2165 23.5516 26.2275 23.5552 26.2319 23.5564C26.2356 23.5574 26.2353 23.557 26.233 23.557V24.8903ZM25.5615 24.7131L26.8925 24.791C26.8542 25.4473 26.5879 26.0838 26.0989 26.5734L25.1556 25.6311L24.2122 24.6887C24.2172 24.6838 24.2201 24.6794 24.2225 24.6739C24.2251 24.6679 24.2292 24.6557 24.2304 24.6353L25.5615 24.7131ZM25.1556 25.6311L26.0984 26.5739C25.5808 27.0914 24.8861 27.3788 24.1542 27.3788V26.0455V24.7121C24.1697 24.7121 24.1799 24.7093 24.1867 24.7065C24.1935 24.7037 24.2023 24.6987 24.2127 24.6882L25.1556 25.6311ZM24.1542 26.0455V27.3788C22.6822 27.3788 21.5011 26.2235 21.416 24.792L22.747 24.7129L24.078 24.6339C24.0793 24.6565 24.0886 24.6764 24.105 24.6921C24.113 24.6997 24.1212 24.7046 24.1282 24.7075C24.1344 24.7101 24.1423 24.7121 24.1542 24.7121V26.0455ZM22.747 24.7129L23.381 25.8859C22.9503 26.1187 22.4397 26.2529 21.8942 26.2178L21.9796 24.8873L22.0651 23.5567C22.0651 23.5567 22.068 23.5569 22.075 23.5553C22.0825 23.5536 22.0956 23.5494 22.113 23.5399L22.747 24.7129ZM21.9796 24.8873L21.8924 26.2177C20.412 26.1206 19.3267 24.8617 19.3267 23.4312H20.6601H21.9934C21.9934 23.4763 22.0098 23.511 22.0303 23.5337C22.0503 23.5557 22.0638 23.5566 22.0669 23.5568L21.9796 24.8873ZM20.6601 23.4312H19.3267V17.0646H20.6601H21.9934V23.4312H20.6601ZM20.6601 17.0646L21.8148 17.7311L21.0899 18.9871L19.9351 18.3206L18.7803 17.654L19.5053 16.398L20.6601 17.0646ZM19.9351 18.3206L21.0911 18.985C20.5759 19.8813 19.6169 20.4325 18.5856 20.4325V19.0992V17.7659C18.6673 17.7659 18.7421 17.7205 18.7791 17.6561L19.9351 18.3206ZM18.5856 19.0992V20.4325C18.0814 20.4325 17.585 20.3003 17.1464 20.049L17.8093 18.8921L18.4722 17.7352C18.508 17.7558 18.5475 17.7659 18.5856 17.7659V19.0992ZM17.8093 18.8921L17.1406 20.0456C16.5419 19.6986 16.1062 19.1338 15.9265 18.4611L17.2146 18.117L18.5028 17.7728C18.5016 17.7682 18.4983 17.7602 18.4918 17.7518C18.4855 17.7435 18.4796 17.7395 18.478 17.7386L17.8093 18.8921ZM17.2146 18.117L15.9269 18.4626C15.7465 17.7905 15.8409 17.0816 16.189 16.4805L17.3428 17.1486L18.4967 17.8168C18.4986 17.8135 18.5019 17.8059 18.5033 17.7951C18.5048 17.7843 18.5036 17.7757 18.5024 17.7713L17.2146 18.117ZM17.3428 17.1486V15.8153C16.6888 15.9867 16.1992 16.4631 16.1955 16.4693C16.1943 16.4713 16.1925 16.4744 16.1919 16.4754C16.1916 16.4759 16.191 16.4769 16.1909 16.4772C16.1907 16.4775 16.1905 16.4779 16.1904 16.478C16.1902 16.4783 16.1903 16.4782 16.1908 16.4773C16.1917 16.4758 16.1932 16.4731 16.1954 16.4693C16.1998 16.4617 16.2064 16.4504 16.2151 16.4353C16.2325 16.4053 16.258 16.3611 16.2905 16.3047C16.3557 16.192 16.4489 16.0306 16.5612 15.8361C16.7858 15.4472 17.0868 14.9259 17.3923 14.3968C18.0043 13.3368 18.6318 12.2497 18.7029 12.1258L19.8595 12.7891L21.0161 13.4525C20.9425 13.5808 20.3117 14.6736 19.7017 15.7302C19.3961 16.2594 19.0951 16.7807 18.8704 17.1697C18.7581 17.3643 18.6648 17.5257 18.5996 17.6386C18.567 17.695 18.5414 17.7393 18.524 17.7696C18.5152 17.7847 18.5085 17.7964 18.5038 17.8044C18.5016 17.8083 18.4997 17.8116 18.4983 17.814C18.4976 17.8151 18.4968 17.8165 18.4961 17.8178C18.4958 17.8183 18.4949 17.8198 18.4939 17.8215C18.4933 17.8226 18.4914 17.8258 18.4901 17.8279C18.4864 17.8341 17.9969 18.3105 17.3428 18.482V17.1486ZM19.8595 12.7891L18.6452 12.2385C18.6598 12.2062 18.7063 12.1018 18.7491 12.0056L19.9674 12.5474L21.1857 13.0892C21.1451 13.1806 21.0936 13.2963 21.0738 13.3397L19.8595 12.7891ZM19.9674 12.5474L18.7491 12.0056C18.7676 11.9639 18.7882 11.9107 18.8174 11.8281L20.0741 12.2737L21.3308 12.7192C21.2946 12.8213 21.2468 12.9518 21.1857 13.0892L19.9674 12.5474ZM20.0741 12.2737L18.8173 11.8285C19.7204 9.279 21.9934 7.66671 24.6963 7.66671V9.00004V10.3334C23.1274 10.3334 21.8584 11.2298 21.3309 12.7188L20.0741 12.2737ZM24.6963 9.00004V7.66671C28.306 7.66671 31.0599 10.8143 31.0599 14.4546H29.7266H28.3932C28.3932 12.0796 26.634 10.3334 24.6963 10.3334V9.00004ZM29.7266 14.4546L31.0599 14.4546L31.0601 22.2289L29.7268 22.229L28.3935 22.229L28.3932 14.4547L29.7266 14.4546ZM29.7268 22.229H31.0601C31.0601 22.9602 30.7733 23.6546 30.2565 24.1722L29.3129 23.2303L28.3692 22.2884C28.3797 22.2778 28.3849 22.2688 28.3877 22.2618C28.3906 22.2548 28.3935 22.2445 28.3935 22.229H29.7268ZM29.3129 23.2303L30.2557 24.1731C29.7381 24.6907 29.0433 24.9781 28.3114 24.9781V23.6447V22.3114C28.327 22.3114 28.3373 22.3085 28.3441 22.3057C28.3509 22.3029 28.3596 22.2979 28.37 22.2875L29.3129 23.2303ZM28.3114 23.6447L27.6126 22.5092L27.6126 22.5091L28.3114 23.6447L29.0102 24.7802L29.0102 24.7803L28.3114 23.6447ZM24.6964 9.75218V11.0855C23.4287 11.0855 22.4674 11.7637 22.0399 12.9704L20.7831 12.5252L19.5263 12.08C20.329 9.81402 22.2934 8.41885 24.6964 8.41885V9.75218ZM20.7831 12.5252L22.0388 12.9733C21.9968 13.0913 21.9421 13.2402 21.873 13.3954L20.6549 12.8532L19.4368 12.3109C19.4634 12.2512 19.4907 12.1797 19.5273 12.0771L20.7831 12.5252ZM20.6549 12.8532L21.8727 13.3961C21.8116 13.5331 21.7605 13.6487 21.7213 13.727C21.697 13.7757 21.6577 13.8506 21.6007 13.9336C21.5429 14.0177 21.4857 14.0811 21.4811 14.0864L20.477 13.2091L19.473 12.3318C19.4761 12.3283 19.4751 12.3294 19.4735 12.3313C19.4715 12.3336 19.4663 12.3397 19.4595 12.348C19.4524 12.3565 19.4436 12.3676 19.4336 12.3808C19.4235 12.3941 19.4132 12.4083 19.403 12.4232C19.3821 12.4536 19.366 12.4802 19.3546 12.5004C19.3439 12.5191 19.3373 12.5322 19.3359 12.5351C19.3344 12.5381 19.3353 12.5363 19.3398 12.5266C19.3442 12.5172 19.3504 12.5037 19.3594 12.484C19.3682 12.4645 19.3788 12.4409 19.3918 12.4117C19.4048 12.3826 19.4197 12.3493 19.4371 12.3102L20.6549 12.8532ZM20.477 13.2091L19.6055 14.2182L19.6004 14.2138L20.4718 13.2047L21.3433 12.1956L21.3485 12.2L20.477 13.2091ZM20.4718 13.2047L21.65 13.829C21.4413 14.2228 20.8455 15.2539 19.1487 18.1919L17.9941 17.5251L16.8395 16.8582C18.5602 13.8789 19.1151 12.9174 19.2937 12.5803L20.4718 13.2047ZM17.9941 17.5251L19.1481 18.1929C19.2548 18.0085 19.2845 17.7861 19.2297 17.5796L17.9411 17.922L16.6525 18.2645C16.526 17.7885 16.5929 17.2843 16.84 16.8573L17.9941 17.5251ZM17.9411 17.922L19.2285 17.5754C19.1737 17.3716 19.0388 17.1934 18.8513 17.0851L18.1847 18.2399L17.5181 19.3946C17.0897 19.1473 16.781 18.742 16.6536 18.2687L17.9411 17.922ZM18.1847 18.2399L18.8488 17.0837C18.697 16.9965 18.5494 16.9971 18.4475 17.0245C18.3459 17.0519 18.2157 17.1259 18.1266 17.2812L19.283 17.9449L20.4394 18.6086C19.8583 19.6211 18.5303 19.976 17.5206 19.396L18.1847 18.2399ZM19.283 17.9449L18.1284 17.278L19.5559 14.8066L20.7105 15.4734L21.8651 16.1403L20.4376 18.6118L19.283 17.9449ZM20.7105 15.4734L19.5568 14.8052C19.9419 14.1403 20.7279 13.8075 21.482 14.0116L21.1337 15.2986L20.7853 16.5857C21.2086 16.7002 21.6497 16.5121 21.8643 16.1417L20.7105 15.4734ZM21.1337 15.2986L21.4787 14.0107C22.2267 14.2111 22.7457 14.889 22.7457 15.6619H21.4124H20.079C20.079 16.0947 20.3695 16.4743 20.7886 16.5866L21.1337 15.2986ZM21.4124 15.6619H22.7457V23.4315H21.4124H20.079V15.6619H21.4124ZM21.4124 23.4315H22.7457C22.7457 23.2795 22.6894 23.1414 22.597 23.0357C22.5048 22.9302 22.342 22.8212 22.1165 22.8064L22.0289 24.1368L21.9414 25.4673C20.819 25.3934 20.079 24.4157 20.079 23.4315H21.4124ZM22.0289 24.1368L22.0994 22.8053C21.9418 22.797 21.7494 22.8547 21.6032 23.0007L22.5451 23.9443L23.4871 24.888C23.0662 25.3082 22.5081 25.4974 21.9585 25.4683L22.0289 24.1368ZM22.5451 23.9443L21.6023 23.0015C21.4758 23.1281 21.4055 23.3014 21.4055 23.4753H22.7388H24.0721C24.0721 24.0048 23.8642 24.5109 23.4879 24.8871L22.5451 23.9443ZM22.7388 23.4753H21.4055V18.3939H22.7388H24.0721V23.4753H22.7388ZM22.7388 18.3939H21.4055C21.4055 17.4497 22.1709 16.6843 23.115 16.6843V18.0176V19.351C23.6436 19.351 24.0721 18.9225 24.0721 18.3939H22.7388ZM23.115 18.0176V16.6843C24.0587 16.6843 24.8246 17.4489 24.8246 18.3939H23.4913H22.158C22.158 18.9228 22.587 19.351 23.115 19.351V18.0176ZM23.4913 18.3939L24.8246 18.3939L24.8244 24.6303L23.4911 24.6303L22.1577 24.6302L22.158 18.3938L23.4913 18.3939ZM23.4911 24.6303H24.8244C24.8244 24.2595 24.525 23.9601 24.1543 23.9601V25.2935V26.6268C23.0523 26.6268 22.1577 25.7323 22.1577 24.6303H23.4911ZM24.1543 25.2935V23.9601C23.9807 23.9601 23.8082 24.03 23.6819 24.1561L24.6238 25.0998L25.5657 26.0435C25.1892 26.4193 24.6831 26.6268 24.1543 26.6268V25.2935ZM24.6238 25.0998L23.6801 24.1579C23.5541 24.2842 23.4841 24.4567 23.4841 24.6303H24.8175H26.1508C26.1508 25.1591 25.9433 25.6652 25.5675 26.0417L24.6238 25.0998ZM24.8175 24.6303H23.4841V18.3939H24.8175H26.1508V24.6303H24.8175ZM24.8175 18.3939H23.4841C23.4841 17.4503 24.2488 16.6843 25.1937 16.6843V18.0176V19.351C25.7226 19.351 26.1508 18.9219 26.1508 18.3939H24.8175ZM25.1937 18.0176V16.6843C26.1374 16.6843 26.9033 17.4489 26.9033 18.3939H25.57H24.2366C24.2366 18.9228 24.6657 19.351 25.1937 19.351V18.0176ZM25.57 18.3939L26.9033 18.3939L26.9031 23.4169L25.5697 23.4168L24.2364 23.4168L24.2366 18.3938L25.57 18.3939ZM25.5697 23.4168H26.9031V23.4752H25.5697H24.2364V23.4168H25.5697ZM25.5697 23.4752H26.9031C26.9031 23.1036 26.603 22.8049 26.2332 22.8049V24.1382V25.4715C25.1316 25.4715 24.2364 24.5777 24.2364 23.4752H25.5697ZM26.2332 24.1382V22.8049C26.056 22.8049 25.8845 22.8769 25.7617 22.9993L26.7027 23.9438L27.6438 24.8884C27.2694 25.2614 26.7652 25.4715 26.2332 25.4715V24.1382ZM26.7027 23.9438L25.7608 23.0001C25.6333 23.1274 25.5631 23.3014 25.5631 23.475H26.8964H28.2297C28.2297 24.0044 28.0219 24.511 27.6447 24.8875L26.7027 23.9438ZM26.8964 23.475H25.5631V18.3936H26.8964H28.2297V23.475H26.8964ZM26.8964 18.3936H25.5631C25.5631 17.45 26.3277 16.684 27.2726 16.684V18.0174V19.3507C27.8015 19.3507 28.2297 18.9217 28.2297 18.3936H26.8964ZM27.2726 18.0174V16.684C28.2163 16.684 28.9822 17.4487 28.9822 18.3936H27.6489H26.3156C26.3156 18.9225 26.7446 19.3507 27.2726 19.3507V18.0174ZM27.6489 18.3936L28.9822 18.3938L28.9818 22.2293L27.6484 22.2292L26.3151 22.229L26.3156 18.3935L27.6489 18.3936ZM27.6484 22.2292H28.9818C28.9818 21.8593 28.683 21.5593 28.3114 21.5593V22.8926V24.2259C27.209 24.2259 26.3151 23.3308 26.3151 22.2292H27.6484ZM28.3114 22.8926V21.5593C28.1365 21.5593 27.9639 21.6301 27.8385 21.7553L28.7805 22.699L29.7224 23.6426C29.3472 24.0171 28.842 24.2259 28.3114 24.2259V22.8926ZM28.7805 22.699L27.8376 21.7561C27.7107 21.8831 27.641 22.0564 27.641 22.2292H28.9744H30.3077C30.3077 22.7572 30.1009 23.2641 29.7233 23.6418L28.7805 22.699ZM28.9744 22.2292L27.641 22.2291L27.6413 14.4548L28.9746 14.4548L30.3079 14.4549L30.3077 22.2292L28.9744 22.2292ZM28.9746 14.4548H27.6413C27.6413 12.4769 26.2031 11.0856 24.6963 11.0856V9.75226V8.41893C27.9077 8.41893 30.3079 11.2472 30.3079 14.4548H28.9746ZM24.6963 9.75226L23.4143 9.38597L23.4143 9.38589L24.6964 9.75218L25.9784 10.1185L25.9784 10.1186L24.6963 9.75226Z" fill="#4CAF4F" mask="url(#path-1-inside-1_1302_1432)"/>
<path d="M11.9631 26.214L11.8879 26.1739C11.8704 26.2055 11.8205 26.294 11.7473 26.4259C11.7733 26.4389 11.7991 26.4511 11.8254 26.461C11.8703 26.3802 11.9165 26.298 11.9631 26.214Z" fill="#4CAF4F" stroke="#4CAF4F" stroke-width="1.33333"/>
<path d="M27.8259 28.0758L27.8279 28.0768C27.8303 28.0785 27.8322 28.0809 27.8347 28.0826C27.8316 28.0805 27.8289 28.0779 27.8259 28.0758Z" fill="#4CAF4F" stroke="#4CAF4F" stroke-width="1.33333"/>
</svg>
