<svg width="66" height="56" viewBox="0 0 66 56" fill="none" xmlns="http://www.w3.org/2000/svg">
<path d="M65.5 38C65.5 47.9411 57.4411 56 47.5 56L20.5 56C17.7386 56 15.5 53.7614 15.5 51L15.5 17C15.5 11.4772 19.9772 7 25.5 7L60.5 7C63.2614 7 65.5 9.23858 65.5 12L65.5 38Z" fill="#E8F5E9"/>
<path d="M28.8114 23.6446C28.5706 23.6446 28.347 23.5784 28.1484 23.4719V23.4748C28.1484 23.8536 28.0012 24.2094 27.734 24.4758C27.4669 24.743 27.1114 24.8903 26.733 24.8903C26.4886 24.8903 26.2622 24.8224 26.0615 24.7131C26.0412 25.0597 25.9027 25.3836 25.6556 25.631C25.3884 25.8982 25.0329 26.0454 24.6542 26.0454C23.9019 26.0454 23.291 25.4541 23.247 24.7129C23.0142 24.8387 22.7511 24.9046 22.4796 24.8872C21.7396 24.8387 21.1601 24.1993 21.1601 23.4312V17.0645L20.4351 18.3205C20.159 18.8009 19.6421 19.0991 19.0856 19.0991C18.8144 19.0991 18.5465 19.028 18.3093 18.892C18.0139 18.7208 17.8025 18.4458 17.7146 18.1169C17.6263 17.7878 17.672 17.4436 17.8428 17.1486C17.843 17.1486 20.2148 13.0414 20.3595 12.7891C20.3767 12.7512 20.4257 12.6411 20.4674 12.5474C20.5072 12.4578 20.5414 12.366 20.5741 12.2736C21.2894 10.2543 23.0604 8.99998 25.1963 8.99998C27.97 8.99998 30.2266 11.4469 30.2266 14.4546L30.2268 22.2289C30.2268 22.6073 30.0798 22.9628 29.8129 23.2302C29.5457 23.4974 29.1902 23.6447 28.8114 23.6447L28.8114 23.6446ZM25.1964 9.75212C23.361 9.75212 21.8982 10.7888 21.2831 12.5251C21.2437 12.6354 21.2027 12.7457 21.1549 12.8531C21.0161 13.1643 21.0161 13.1643 20.977 13.2091L20.9718 13.2046C20.7782 13.57 20.2029 14.5663 18.4941 17.525C18.4239 17.6463 18.4052 17.7872 18.4411 17.922C18.4773 18.0567 18.5643 18.1703 18.6847 18.2398C19.0583 18.4544 19.5701 18.3159 19.783 17.9448L21.2105 15.4734C21.2958 15.3261 21.4683 15.2538 21.6337 15.2986C21.7981 15.3426 21.9124 15.4918 21.9124 15.6619V23.4314C21.9124 23.798 22.189 24.1144 22.5289 24.1368C22.725 24.1471 22.9078 24.0814 23.0451 23.9443C23.17 23.8194 23.2388 23.6531 23.2388 23.4752V18.3938C23.2388 18.186 23.4073 18.0176 23.615 18.0176C23.8228 18.0176 23.9913 18.1858 23.9913 18.3938L23.9911 24.6302C23.9911 24.9958 24.2886 25.2934 24.6543 25.2934C24.8319 25.2934 24.9987 25.2246 25.1238 25.0997C25.2487 24.9746 25.3175 24.8078 25.3175 24.6302V18.3938C25.3175 18.186 25.4857 18.0176 25.6937 18.0176C25.9015 18.0176 26.07 18.1858 26.07 18.3938L26.0697 23.4168V23.4752C26.0697 23.8406 26.3673 24.1381 26.7332 24.1381C26.9106 24.1381 27.0769 24.0691 27.2027 23.9438C27.3276 23.8191 27.3964 23.6528 27.3964 23.4749V18.3936C27.3964 18.1858 27.5646 18.0173 27.7726 18.0173C27.9804 18.0173 28.1489 18.1855 28.1489 18.3936L28.1484 22.2291C28.1484 22.595 28.446 22.8925 28.8114 22.8925C28.9893 22.8925 29.1556 22.8235 29.2805 22.6989C29.4058 22.5736 29.4744 22.4067 29.4744 22.2291L29.4746 14.4548C29.4746 11.862 27.5554 9.7522 25.1963 9.7522L25.1964 9.75212Z" fill="#103E13"/>
<path d="M14.029 29.048L19.4887 25.7727C20.147 25.3774 20.9939 25.5454 21.4161 26.1553C21.5702 26.3775 21.6489 26.6364 21.6611 26.9001C21.8647 26.7938 22.0862 26.7361 22.3116 26.7361C22.4271 26.7361 22.543 26.7505 22.6575 26.779C23.0243 26.8706 23.3334 27.0999 23.5278 27.424C23.7224 27.7487 23.7792 28.1291 23.6875 28.4955C23.603 28.8346 23.3968 29.1199 23.1101 29.3157C23.3106 29.4339 23.4835 29.5953 23.6065 29.8008C23.8011 30.1254 23.8579 30.5057 23.7665 30.8725C23.6748 31.2389 23.4456 31.548 23.1209 31.7429L23.119 31.744C23.316 31.8621 23.4859 32.0218 23.6074 32.2242C23.8023 32.5488 23.8591 32.9293 23.7674 33.2961C23.6755 33.6627 23.4463 33.9718 23.1221 34.1664L16.4557 38.1657C15.2115 38.9119 13.7732 39.1694 12.4062 38.8902C11.0271 38.6084 9.88485 37.8157 9.19034 36.6579C8.09126 34.8261 8.25597 32.6619 9.61937 31.0101C9.6818 30.9347 9.74329 30.8579 9.79913 30.7783C9.85826 30.6942 9.92729 30.5952 9.95085 30.5613C10.092 30.3092 12.3947 26.1603 12.3945 26.1608C12.627 25.7412 13.0629 25.5037 13.5124 25.5039C13.7221 25.5039 13.9348 25.5555 14.1311 25.6644C14.3681 25.7968 14.5672 25.9898 14.7064 26.2223C14.9927 26.6994 15.0028 27.2964 14.7333 27.7796L14.029 29.048ZM14.0617 26.6091C13.9887 26.4873 13.8883 26.3902 13.7656 26.3214C13.5118 26.181 13.1924 26.2724 13.0527 26.5252C11.4049 29.4937 10.8432 30.5054 10.6265 30.8654L10.6314 30.8666C10.6133 30.9269 10.6133 30.9269 10.4149 31.2103C10.3475 31.3062 10.2742 31.3983 10.1996 31.489C9.0272 32.9094 8.89107 34.6969 9.83509 36.2709C10.4198 37.2458 11.3863 37.9142 12.5565 38.1531C13.7394 38.3937 14.9862 38.1699 16.0683 37.5206L22.7353 33.5211C22.8875 33.4299 22.995 33.285 23.0378 33.1133C23.0807 32.9417 23.0541 32.7634 22.9627 32.6112C22.7747 32.2979 22.3664 32.1949 22.053 32.3836L18.7641 34.3568C18.586 34.4637 18.3546 34.4062 18.2479 34.2279C18.141 34.0498 18.1987 33.8187 18.3768 33.7117L21.666 31.7386L22.7342 31.0977C22.8864 31.0063 22.994 30.8614 23.0369 30.6901C23.0798 30.5184 23.0532 30.3398 22.9617 30.1878C22.7735 29.8743 22.3652 29.7723 22.0521 29.9603L17.6947 32.5742C17.5161 32.6814 17.2855 32.6235 17.1785 32.4454C17.0716 32.2673 17.1295 32.0361 17.3074 31.9292L22.6552 28.7211C22.8074 28.6296 22.9149 28.485 22.9577 28.3132C23.0006 28.1417 22.974 27.9634 22.8828 27.8112C22.7916 27.6592 22.6468 27.5518 22.475 27.5089C22.3023 27.466 22.1247 27.4927 21.9729 27.5836L20.983 28.1775C20.9827 28.1775 20.9827 28.1778 20.9825 28.1778H20.9823L16.6251 30.7917C16.4465 30.8992 16.2157 30.8412 16.1089 30.6629C16.002 30.4848 16.0599 30.2536 16.2378 30.1467L20.5952 27.5327C20.7474 27.4413 20.855 27.2964 20.8979 27.1251C20.945 26.9371 20.9092 26.7449 20.7976 26.5837C20.6039 26.3036 20.1897 26.2291 19.8757 26.4179L13.2135 30.4146C13.0677 30.5017 12.8808 30.4805 12.7585 30.3625C12.636 30.2442 12.6085 30.0583 12.6909 29.9097L14.0763 27.4137C14.2153 27.1642 14.2098 26.8561 14.0617 26.6092L14.0617 26.6091Z" fill="#103E13"/>
<path d="M40.1181 36.6577C39.4238 37.8157 38.2819 38.6083 36.9025 38.8901C35.5353 39.1688 34.0974 38.9117 32.853 38.1656L26.186 34.1661C25.8616 33.9715 25.6321 33.6624 25.5402 33.2953C25.449 32.9289 25.506 32.5484 25.7004 32.2243C25.8217 32.0216 25.9918 31.8619 26.189 31.7439L26.1871 31.7427C25.8627 31.5481 25.6333 31.239 25.5419 30.8724C25.45 30.5058 25.507 30.125 25.7016 29.8004C25.8269 29.5919 25.9987 29.4289 26.1947 29.3132C25.9101 29.1174 25.7051 28.8331 25.6208 28.4957C25.5289 28.1288 25.5859 27.7483 25.7805 27.4242C25.9749 27.0997 26.2842 26.8705 26.6508 26.7789C26.7653 26.7501 26.8815 26.736 26.9965 26.736C27.2222 26.7362 27.4436 26.7935 27.6472 26.9C27.6597 26.6363 27.7381 26.3774 27.8922 26.1552C28.3146 25.5458 29.1609 25.3771 29.8201 25.7726L35.2796 29.0474L34.5759 27.7799C34.3059 27.296 34.3158 26.699 34.6021 26.2216C34.7415 25.9893 34.9408 25.7964 35.179 25.6628C35.3748 25.5544 35.5869 25.5031 35.796 25.5031C36.2453 25.5033 36.6817 25.7403 36.9139 26.1599C37.7235 27.6185 39.2511 30.3694 39.3585 30.5614C39.3813 30.5946 39.4504 30.6936 39.5095 30.7777C39.5658 30.8575 39.6266 30.9339 39.6895 31.0097C41.0527 32.6622 41.2171 34.8262 40.1181 36.6578L40.1181 36.6577ZM39.1091 31.4892C39.0341 31.3985 38.9606 31.3059 38.8937 31.2105C38.6902 30.9217 38.685 30.9141 38.6697 30.8385C38.4317 30.4448 37.8512 29.3997 36.2555 26.5249C36.1156 26.2726 35.7975 26.1805 35.5443 26.3204C35.4196 26.3901 35.3195 26.4874 35.2465 26.6093C35.0985 26.8559 35.0928 27.1641 35.2326 27.4143L36.6174 29.9095C36.7001 30.0584 36.6725 30.2441 36.5503 30.3623C36.4282 30.4808 36.2416 30.5016 36.0951 30.4144L29.4329 26.4177C29.1189 26.2295 28.7049 26.3032 28.5108 26.5836C28.3991 26.7447 28.3635 26.937 28.4102 27.1247C28.4531 27.2963 28.5607 27.4409 28.7132 27.5323C28.7136 27.5326 28.7139 27.533 28.7143 27.5333L33.0703 30.1465C33.2484 30.2535 33.3062 30.4844 33.1992 30.6627C33.0922 30.8406 32.8616 30.8988 32.683 30.7916L27.3352 27.5835C27.1834 27.4925 27.0048 27.4657 26.8333 27.5088C26.6613 27.5517 26.5167 27.6591 26.4255 27.8115C26.3341 27.9635 26.3077 28.1418 26.3501 28.3133C26.393 28.4849 26.5007 28.6297 26.6529 28.7212L27.6935 29.3453L32.0005 31.9293C32.1786 32.0363 32.2363 32.2672 32.1293 32.4455C32.0224 32.6234 31.7917 32.6814 31.6131 32.5744L27.2562 29.9604C26.9429 29.7719 26.5348 29.8742 26.3464 30.188C26.255 30.3402 26.2286 30.5186 26.271 30.6901C26.3139 30.8616 26.4215 31.0062 26.5739 31.0979L27.6422 31.7387L30.9308 33.7119C31.109 33.8188 31.1667 34.0497 31.0597 34.2281C30.9528 34.4059 30.7221 34.4644 30.5435 34.3569L27.2548 32.3838C27.1031 32.2928 26.9252 32.266 26.7528 32.3091C26.5813 32.352 26.4361 32.4594 26.345 32.6114C26.2538 32.7636 26.2272 32.9421 26.2696 33.1134C26.3124 33.2849 26.4201 33.4296 26.5725 33.5212L33.2395 37.5207C34.3214 38.1698 35.5691 38.3945 36.7514 38.1533C37.9213 37.9144 38.8878 37.246 39.4725 36.2711C40.4175 34.6968 40.2816 32.9091 39.1095 31.4892L39.1091 31.4892Z" fill="#103E13"/>
</svg>
